<?xml version="1.0"?>
<svg xmlns="http://www.w3.org/2000/svg" xmlns:xlink="http://www.w3.org/1999/xlink" xmlns:svgjs="http://svgjs.com/svgjs" version="1.1" width="512" height="512" x="0" y="0" viewBox="0 0 416.8 416.8" style="enable-background:new 0 0 512 512" xml:space="preserve" class=""><g>
<g xmlns="http://www.w3.org/2000/svg">
	<g>
		<path d="M106.808,309.6h256c4.8,0,8-3.2,8-8V30.4c0-16.8-13.6-30.4-30.4-30.4h-264c-16.8,0-30.4,13.6-30.4,30.4v324.8    c-0.8,33.6,27.2,61.6,60.8,61.6h256c4.8,0,8-3.2,8-8s-3.2-8-8-8h-256c-24.8,0-45.6-20.8-45.6-45.6    C61.208,330.4,82.008,309.6,106.808,309.6z M60.408,313.6V30.4h0.8c0-8,6.4-14.4,14.4-14.4h264c8,0,14.4,6.4,14.4,14.4v263.2h-248    C87.608,293.6,71.608,301.6,60.408,313.6z" fill="#ffffff" data-original="#000000" style="" class=""/>
	</g>
</g>
<g xmlns="http://www.w3.org/2000/svg">
	<g>
		<path d="M362.008,364h-268c-4.8,0-8,3.2-8,8s3.2,8,8,8h268c4.8,0,8-3.2,8-8S366.808,364,362.008,364z" fill="#ffffff" data-original="#000000" style="" class=""/>
	</g>
</g>
<g xmlns="http://www.w3.org/2000/svg">
	<g>
		<path d="M362.008,328.8h-268c-4.8,0-8,3.2-8,8s3.2,8,8,8h268c4.8,0,8-3.2,8-8S366.808,328.8,362.008,328.8z" fill="#ffffff" data-original="#000000" style="" class=""/>
	</g>
</g>
<g xmlns="http://www.w3.org/2000/svg">
	<g>
		<path d="M281.208,72.8h-145.6c-9.6,0-17.6,8-17.6,17.6v63.2c0,9.6,8,17.6,17.6,17.6h145.6c9.6,0,17.6-8,17.6-17.6V90.4    C298.808,80.8,290.808,72.8,281.208,72.8z M282.808,153.6c0,0.8-0.8,1.6-1.6,1.6h-145.6c-0.8,0-1.6-0.8-1.6-1.6V90.4h0    c0-0.8,0.8-1.6,1.6-1.6h145.6c0.8,0,1.6,0.8,1.6,1.6V153.6z" fill="#ffffff" data-original="#000000" style="" class=""/>
	</g>
</g>
<g xmlns="http://www.w3.org/2000/svg">
</g>
<g xmlns="http://www.w3.org/2000/svg">
</g>
<g xmlns="http://www.w3.org/2000/svg">
</g>
<g xmlns="http://www.w3.org/2000/svg">
</g>
<g xmlns="http://www.w3.org/2000/svg">
</g>
<g xmlns="http://www.w3.org/2000/svg">
</g>
<g xmlns="http://www.w3.org/2000/svg">
</g>
<g xmlns="http://www.w3.org/2000/svg">
</g>
<g xmlns="http://www.w3.org/2000/svg">
</g>
<g xmlns="http://www.w3.org/2000/svg">
</g>
<g xmlns="http://www.w3.org/2000/svg">
</g>
<g xmlns="http://www.w3.org/2000/svg">
</g>
<g xmlns="http://www.w3.org/2000/svg">
</g>
<g xmlns="http://www.w3.org/2000/svg">
</g>
<g xmlns="http://www.w3.org/2000/svg">
</g>
</g></svg>
