<?xml version="1.0"?>
<svg xmlns="http://www.w3.org/2000/svg" xmlns:xlink="http://www.w3.org/1999/xlink" xmlns:svgjs="http://svgjs.com/svgjs" version="1.1" width="512" height="512" x="0" y="0" viewBox="0 0 424.8 424.8" style="enable-background:new 0 0 512 512" xml:space="preserve"><g>
<g xmlns="http://www.w3.org/2000/svg">
	<g>
		<path d="M360.8,0H63.2C52,0,42.4,9.6,42.4,20.8V404c0,11.2,9.6,20.8,20.8,20.8h298.4c11.2,0,20.8-9.6,20.8-20.8V21.6    C382.4,9.6,372.8,0,360.8,0z M361.6,408.8H63.2c-2.4,0-4.8-2.4-4.8-4.8V21.6c0-2.4,2.4-4.8,4.8-4.8h298.4c2.4,0,4.8,2.4,4.8,4.8    V404h0C366.4,406.4,364,408.8,361.6,408.8z" fill="#ffffff" data-original="#000000" style=""/>
	</g>
</g>
<g xmlns="http://www.w3.org/2000/svg">
	<g>
		<path d="M324.8,35.2H99.2c-4.8,0-8,3.2-8,8v91.2c0,4.8,3.2,8,8,8h225.6c4.8,0,8-3.2,8-8V43.2C332.8,39.2,328.8,35.2,324.8,35.2z     M316.8,126.4H107.2V51.2h209.6V126.4z" fill="#ffffff" data-original="#000000" style=""/>
	</g>
</g>
<g xmlns="http://www.w3.org/2000/svg">
	<g>
		<path d="M149.6,157.6h-47.2c-4.8,0-8,3.2-8,8v47.2c0,4.8,3.2,8,8,8h47.2c4.8,0,8-3.2,8-8v-47.2    C157.6,160.8,154.4,157.6,149.6,157.6z M141.6,204.8h-31.2v-31.2h31.2V204.8z" fill="#ffffff" data-original="#000000" style=""/>
	</g>
</g>
<g xmlns="http://www.w3.org/2000/svg">
	<g>
		<path d="M236,157.6h-48c-4.8,0-8,3.2-8,8v47.2c0,4.8,3.2,8,8,8h48c4.8,0,8-3.2,8-8v-47.2C244,160.8,240,157.6,236,157.6z     M228,204.8h-32v-31.2h32V204.8z" fill="#ffffff" data-original="#000000" style=""/>
	</g>
</g>
<g xmlns="http://www.w3.org/2000/svg">
	<g>
		<path d="M321.6,157.6h-47.2c-4.8,0-8,3.2-8,8v47.2c0,4.8,3.2,8,8,8h47.2c4.8,0,8-3.2,8-8v-47.2    C329.6,160.8,326.4,157.6,321.6,157.6z M313.6,204.8h-31.2v-31.2h31.2V204.8z" fill="#ffffff" data-original="#000000" style=""/>
	</g>
</g>
<g xmlns="http://www.w3.org/2000/svg">
	<g>
		<path d="M149.6,240.8h-47.2c-4.8,0-8,3.2-8,8v48c0,4.8,3.2,8,8,8h47.2c4.8,0,8-3.2,8-8v-48C157.6,244,154.4,240.8,149.6,240.8z     M141.6,288h-31.2v-32h31.2V288z" fill="#ffffff" data-original="#000000" style=""/>
	</g>
</g>
<g xmlns="http://www.w3.org/2000/svg">
	<g>
		<path d="M236,240.8h-48c-4.8,0-8,3.2-8,8v48c0,4.8,3.2,8,8,8h48c4.8,0,8-3.2,8-8v-48C244,244,240,240.8,236,240.8z M228,288h-32    v-32h32V288z" fill="#ffffff" data-original="#000000" style=""/>
	</g>
</g>
<g xmlns="http://www.w3.org/2000/svg">
	<g>
		<path d="M321.6,240.8h-47.2c-4.8,0-8,3.2-8,8v48c0,4.8,3.2,8,8,8h47.2c4.8,0,8-3.2,8-8v-48C329.6,244,326.4,240.8,321.6,240.8z     M313.6,288h-31.2v-32h31.2V288z" fill="#ffffff" data-original="#000000" style=""/>
	</g>
</g>
<g xmlns="http://www.w3.org/2000/svg">
	<g>
		<path d="M149.6,324h-47.2c-4.8,0-8,3.2-8,8v47.2c0,4.8,3.2,8,8,8h47.2c4.8,0,8-3.2,8-8V332C157.6,327.2,154.4,324,149.6,324z     M141.6,371.2h-31.2V340h31.2V371.2z" fill="#ffffff" data-original="#000000" style=""/>
	</g>
</g>
<g xmlns="http://www.w3.org/2000/svg">
	<g>
		<path d="M236,324h-48c-4.8,0-8,3.2-8,8v47.2c0,4.8,3.2,8,8,8h48c4.8,0,8-3.2,8-8V332C244,327.2,240,324,236,324z M228,371.2h-32    V340h32V371.2z" fill="#ffffff" data-original="#000000" style=""/>
	</g>
</g>
<g xmlns="http://www.w3.org/2000/svg">
	<g>
		<path d="M321.6,324h-47.2c-4.8,0-8,3.2-8,8v47.2c0,4.8,3.2,8,8,8h47.2c4.8,0,8-3.2,8-8V332C329.6,327.2,326.4,324,321.6,324z     M313.6,371.2h-31.2V340h31.2V371.2z" fill="#ffffff" data-original="#000000" style=""/>
	</g>
</g>
<g xmlns="http://www.w3.org/2000/svg">
</g>
<g xmlns="http://www.w3.org/2000/svg">
</g>
<g xmlns="http://www.w3.org/2000/svg">
</g>
<g xmlns="http://www.w3.org/2000/svg">
</g>
<g xmlns="http://www.w3.org/2000/svg">
</g>
<g xmlns="http://www.w3.org/2000/svg">
</g>
<g xmlns="http://www.w3.org/2000/svg">
</g>
<g xmlns="http://www.w3.org/2000/svg">
</g>
<g xmlns="http://www.w3.org/2000/svg">
</g>
<g xmlns="http://www.w3.org/2000/svg">
</g>
<g xmlns="http://www.w3.org/2000/svg">
</g>
<g xmlns="http://www.w3.org/2000/svg">
</g>
<g xmlns="http://www.w3.org/2000/svg">
</g>
<g xmlns="http://www.w3.org/2000/svg">
</g>
<g xmlns="http://www.w3.org/2000/svg">
</g>
</g></svg>
