<?xml version="1.0"?>
<svg xmlns="http://www.w3.org/2000/svg" xmlns:xlink="http://www.w3.org/1999/xlink" xmlns:svgjs="http://svgjs.com/svgjs" version="1.1" width="512" height="512" x="0" y="0" viewBox="0 0 390.4 390.4" style="enable-background:new 0 0 512 512" xml:space="preserve" class=""><g>
<g xmlns="http://www.w3.org/2000/svg">
	<g>
		<path d="M371.2,104.4H228V38.8c0-10.4-8.8-19.2-19.2-19.2h-27.2c-10.4,0-19.2,8.8-19.2,19.2v65.6H19.2C8.8,104.4,0,113.2,0,123.6    v228c0,10.4,8.8,19.2,19.2,19.2h352c10.4,0,19.2-8.8,19.2-19.2v-228C390.4,113.2,381.6,104.4,371.2,104.4z M178.4,38.8    c0-1.6,1.6-3.2,3.2-3.2h27.2c1.6,0,3.2,1.6,3.2,3.2v108.8c0,1.6-1.6,3.2-3.2,3.2h-27.2c-1.6,0-3.2-1.6-3.2-3.2V38.8z M163.2,144.4    v3.2c-0.8,10.4,8,19.2,18.4,19.2h27.2c10.4,0,19.2-8.8,19.2-19.2v-3.2h13.6v28.8h-92v-28.8H163.2z M374.4,350.8    c0,1.6-1.6,3.2-3.2,3.2h-352c-1.6,0-3.2-1.6-3.2-3.2V123.6c0-1.6,1.6-3.2,3.2-3.2h143.2v8h-21.6c-4.8,0-8,3.2-8,8v44.8    c0,4.8,3.2,8,8,8h108c4.8,0,8-3.2,8-8v-44.8c0-4.8-3.2-8-8-8h-21.6v-8h144c1.6,0,3.2,1.6,3.2,3.2V350.8z" fill="#ffffff" data-original="#000000" style=""/>
	</g>
</g>
<g xmlns="http://www.w3.org/2000/svg">
	<g>
		<path d="M129.6,270.8c12-8.8,19.2-22.4,19.2-38.4c0-26.4-21.6-47.2-47.2-47.2c-26.4,0-47.2,21.6-47.2,47.2c0,16,8,29.6,19.2,38.4    c-20.8,10.4-34.4,31.2-34.4,56c0,4.8,3.2,8,8,8H156c4.8,0,8-3.2,8-8C164,302,150.4,281.2,129.6,270.8z M70.4,232.4    c0-17.6,14.4-31.2,31.2-31.2c17.6,0,31.2,14.4,31.2,31.2c0,16.8-14.4,31.2-31.2,31.2C84.8,264.4,70.4,250,70.4,232.4z M56,318.8    c4-21.6,23.2-38.4,45.6-38.4c22.4,0,42.4,16.8,45.6,38.4H56z" fill="#ffffff" data-original="#000000" style=""/>
	</g>
</g>
<g xmlns="http://www.w3.org/2000/svg">
	<g>
		<path d="M289.6,209.2H220c-4.8,0-8,3.2-8,8s4,8,8,8h69.6c4.8,0,8-3.2,8-8S294.4,209.2,289.6,209.2z" fill="#ffffff" data-original="#000000" style=""/>
	</g>
</g>
<g xmlns="http://www.w3.org/2000/svg">
	<g>
		<path d="M337.6,239.6H220c-4.8,0-8,3.2-8,8s3.2,8,8,8h117.6c4.8,0,8-3.2,8-8S341.6,239.6,337.6,239.6z" fill="#ffffff" data-original="#000000" style=""/>
	</g>
</g>
<g xmlns="http://www.w3.org/2000/svg">
</g>
<g xmlns="http://www.w3.org/2000/svg">
</g>
<g xmlns="http://www.w3.org/2000/svg">
</g>
<g xmlns="http://www.w3.org/2000/svg">
</g>
<g xmlns="http://www.w3.org/2000/svg">
</g>
<g xmlns="http://www.w3.org/2000/svg">
</g>
<g xmlns="http://www.w3.org/2000/svg">
</g>
<g xmlns="http://www.w3.org/2000/svg">
</g>
<g xmlns="http://www.w3.org/2000/svg">
</g>
<g xmlns="http://www.w3.org/2000/svg">
</g>
<g xmlns="http://www.w3.org/2000/svg">
</g>
<g xmlns="http://www.w3.org/2000/svg">
</g>
<g xmlns="http://www.w3.org/2000/svg">
</g>
<g xmlns="http://www.w3.org/2000/svg">
</g>
<g xmlns="http://www.w3.org/2000/svg">
</g>
</g></svg>
