<?xml version="1.0"?>
<svg xmlns="http://www.w3.org/2000/svg" xmlns:xlink="http://www.w3.org/1999/xlink" xmlns:svgjs="http://svgjs.com/svgjs" version="1.1" width="512" height="512" x="0" y="0" viewBox="0 0 374.646 374.646" style="enable-background:new 0 0 512 512" xml:space="preserve"><g>
<g xmlns="http://www.w3.org/2000/svg">
	<g>
		<path d="M342.357,81.696c-28-41.6-70.4-69.6-120-78.4c-49.6-8.8-99.2,0.8-140.8,29.6c-41.6,28-69.6,70.4-78.4,120    c-8.8,49.6,0.8,98.4,28.8,140c28,41.6,70.4,69.6,120,78.4c8,1.6,16,2.4,26.4,3.2c2.4,0,4.8-0.8,6.4-3.2c1.6-1.6,2.4-4.8,1.6-7.2    c-4-16-4.8-32-1.6-47.2c11.2-58.4,67.2-96.8,125.6-85.6c15.2,3.2,29.6,8.8,42.4,18.4c2.4,1.6,4.8,1.6,7.2,0.8s4-2.4,4.8-4.8    c3.2-8.8,4.8-16,6.4-23.2C380.757,172.896,370.357,123.296,342.357,81.696z M355.157,219.296c-0.8,3.2-1.6,7.2-2.4,11.2    c-12-7.2-25.6-12-40-15.2c-67.2-12.8-131.2,31.2-144,98.4c-2.4,14.4-3.2,29.6,0,44c-4.8-0.8-9.6-0.8-13.6-1.6    c-44.8-8.8-84-34.4-109.6-72c-25.6-37.6-35.2-83.2-26.4-128s34.4-84,72-109.6c28.8-19.2,62.4-29.6,96-29.6c10.4,0,21.6,0.8,32,3.2    c44.8,8.8,84,34.4,109.6,72C354.357,128.896,363.957,174.496,355.157,219.296z" fill="#ffffff" data-original="#000000" style=""/>
	</g>
</g>
<g xmlns="http://www.w3.org/2000/svg">
	<g>
		<path d="M187.157,139.296c-26.4,0-48,21.6-48,48c0,26.4,21.6,48,48,48c26.4,0,48-21.6,48-48    C235.157,160.896,213.557,139.296,187.157,139.296z M187.157,219.296c-17.6,0-32-14.4-32-32c0-17.6,14.4-32,32-32    c17.6,0,32,14.4,32,32C219.157,204.896,204.757,219.296,187.157,219.296z" fill="#ffffff" data-original="#000000" style=""/>
	</g>
</g>
<g xmlns="http://www.w3.org/2000/svg">
	<g>
		<path d="M283.957,84.096c-26.4,0-48,21.6-48,48c0,26.4,21.6,48,48,48c26.4,0,48-21.6,48-48    C331.957,105.696,310.357,84.096,283.957,84.096z M283.957,164.096c-17.6,0-32-14.4-32-32c0-17.6,14.4-32,32-32    c17.6,0,32,14.4,32,32C315.957,149.696,301.557,164.096,283.957,164.096z" fill="#ffffff" data-original="#000000" style=""/>
	</g>
</g>
<g xmlns="http://www.w3.org/2000/svg">
	<g>
		<path d="M181.557,24.096c-26.4,0-48,21.6-48,48c0,26.4,21.6,48,48,48c26.4,0,48-21.6,48-48    C229.557,45.696,207.957,24.096,181.557,24.096z M181.557,104.096c-17.6,0-32-14.4-32-32c0-17.6,14.4-32,32-32    c17.6,0,32,14.4,32,32S199.157,104.096,181.557,104.096z" fill="#ffffff" data-original="#000000" style=""/>
	</g>
</g>
<g xmlns="http://www.w3.org/2000/svg">
	<g>
		<path d="M85.557,96.096c-26.4,0-48,21.6-48,48c0,26.4,21.6,48,48,48c26.4,0,48-21.6,48-48    C133.557,117.696,111.957,96.096,85.557,96.096z M85.557,176.096c-17.6,0-32-14.4-32-32s14.4-32,32-32c17.6,0,32,14.4,32,32    C117.557,161.696,103.157,176.096,85.557,176.096z" fill="#ffffff" data-original="#000000" style=""/>
	</g>
</g>
<g xmlns="http://www.w3.org/2000/svg">
	<g>
		<path d="M110.357,209.696c-26.4,0-48,21.6-48,48c0,26.4,21.6,48,48,48c26.4,0,48-21.6,48-48    C158.357,231.296,136.757,209.696,110.357,209.696z M110.357,289.696c-17.6,0-32-14.4-32-32c0-17.6,14.4-32,32-32    c17.6,0,32,14.4,32,32C142.357,275.296,127.957,289.696,110.357,289.696z" fill="#ffffff" data-original="#000000" style=""/>
	</g>
</g>
<g xmlns="http://www.w3.org/2000/svg">
</g>
<g xmlns="http://www.w3.org/2000/svg">
</g>
<g xmlns="http://www.w3.org/2000/svg">
</g>
<g xmlns="http://www.w3.org/2000/svg">
</g>
<g xmlns="http://www.w3.org/2000/svg">
</g>
<g xmlns="http://www.w3.org/2000/svg">
</g>
<g xmlns="http://www.w3.org/2000/svg">
</g>
<g xmlns="http://www.w3.org/2000/svg">
</g>
<g xmlns="http://www.w3.org/2000/svg">
</g>
<g xmlns="http://www.w3.org/2000/svg">
</g>
<g xmlns="http://www.w3.org/2000/svg">
</g>
<g xmlns="http://www.w3.org/2000/svg">
</g>
<g xmlns="http://www.w3.org/2000/svg">
</g>
<g xmlns="http://www.w3.org/2000/svg">
</g>
<g xmlns="http://www.w3.org/2000/svg">
</g>
</g></svg>
